# This file uses centimeters as units for non-parametric coordinates.

mtllib House_Windows.mtl
g default
v 174.540000 283.263999 260.293801
v 359.157060 283.263999 260.293801
v 174.540000 345.340477 260.293801
v 359.157060 345.340477 260.293801
v 174.936294 45.504776 260.722166
v 358.469574 45.504776 260.722166
v 174.936294 246.647412 260.722166
v 358.469574 246.647412 260.722166
v 75.415734 45.504776 265.473699
v 171.879728 45.504776 265.473699
v 75.415734 246.647412 265.473699
v 171.879728 246.647412 265.473699
v -39.438066 283.263999 263.185445
v 38.995012 283.263999 263.185445
v -39.438066 345.340477 263.185445
v 38.995012 345.340477 263.185445
v 363.875593 282.966919 -263.350722
v -113.200335 282.966919 -263.350722
v 363.875593 343.666010 -263.350722
v -113.200335 343.666010 -263.350722
v 390.645404 118.357272 231.151059
v 390.645404 118.357272 123.691352
v 390.645404 241.396727 231.151059
v 390.645404 241.396727 123.691352
v 390.645404 118.357272 -18.148738
v 390.645404 118.357272 -125.608439
v 390.645404 241.396727 -18.148735
v 390.645404 241.396727 -125.608439
v 385.572096 118.357272 -128.894415
v 385.572096 118.357272 -236.354122
v 385.572096 241.396727 -128.894415
v 385.572096 241.396727 -236.354122
v 388.108599 282.966919 236.917979
v 388.108642 282.966919 -237.896376
v 388.108599 343.666010 236.917979
v 388.108642 343.666010 -237.896376
v 385.572096 118.357272 120.980503
v 385.572096 118.357272 13.520799
v 385.572096 241.396727 120.980503
v 385.572096 241.396727 13.520801
v -119.489258 283.263999 263.185445
v -41.056180 283.263999 263.185445
v -119.489258 345.340477 263.185445
v -41.056180 345.340477 263.185445
v 75.415734 283.263999 265.473699
v 171.879728 283.263999 265.473699
v 75.415734 345.340477 265.473699
v 171.879728 345.340477 265.473699
vt 0.370273 0.137633
vt 0.058608 0.210777
vt 0.034014 0.105981
vt 0.345679 0.032838
vt 0.840249 0.712178
vt 0.522079 0.704900
vt 0.530056 0.356202
vt 0.848226 0.363481
vt 0.465574 0.786587
vt 0.300689 0.758434
vt 0.359391 0.414621
vt 0.524277 0.442774
vt 0.961808 0.032851
vt 0.961808 0.168857
vt 0.854165 0.168857
vt 0.854165 0.032851
vt 0.850848 0.132441
vt 0.068063 0.400059
vt 0.034014 0.300465
vt 0.816798 0.032846
vt 0.663028 0.923249
vt 0.476795 0.916962
vt 0.483993 0.703729
vt 0.670226 0.710015
vt 0.300752 0.714921
vt 0.114519 0.708634
vt 0.121717 0.495401
vt 0.307950 0.501687
vt 0.220247 0.925850
vt 0.034014 0.919563
vt 0.041212 0.706329
vt 0.227445 0.712616
vt 0.847187 0.246894
vt 0.068033 0.513012
vt 0.034014 0.413407
vt 0.813167 0.147289
vt 0.859260 0.928121
vt 0.673027 0.921834
vt 0.680225 0.708601
vt 0.866458 0.714888
vt 0.965986 0.354689
vt 0.830209 0.362565
vt 0.823975 0.255103
vt 0.959753 0.247227
vt 0.337889 0.765314
vt 0.337889 0.932586
vt 0.230246 0.932586
vt 0.230246 0.765314
vn 0.000000 0.000000 1.000000
vn 0.000000 0.000000 1.000000
vn 0.000000 0.000000 1.000000
vn 0.000000 0.000000 1.000000
vn 0.000000 0.000000 1.000000
vn 0.000000 0.000000 1.000000
vn 0.000000 0.000000 1.000000
vn 0.000000 0.000000 1.000000
vn 0.000000 0.000000 1.000000
vn 0.000000 0.000000 1.000000
vn 0.000000 0.000000 1.000000
vn 0.000000 0.000000 1.000000
vn 0.000000 0.000000 1.000000
vn 0.000000 0.000000 1.000000
vn 0.000000 0.000000 1.000000
vn 0.000000 0.000000 1.000000
vn 0.000000 0.000000 -1.000000
vn 0.000000 0.000000 -1.000000
vn 0.000000 0.000000 -1.000000
vn 0.000000 0.000000 -1.000000
vn 1.000000 0.000000 0.000000
vn 1.000000 0.000000 0.000000
vn 1.000000 0.000000 0.000000
vn 1.000000 0.000000 0.000000
vn 1.000000 0.000000 0.000000
vn 1.000000 0.000000 0.000000
vn 1.000000 0.000000 0.000000
vn 1.000000 0.000000 0.000000
vn 1.000000 0.000000 0.000000
vn 1.000000 0.000000 0.000000
vn 1.000000 0.000000 0.000000
vn 1.000000 0.000000 0.000000
vn 1.000000 0.000000 0.000000
vn 1.000000 0.000000 0.000000
vn 1.000000 0.000000 0.000000
vn 1.000000 0.000000 0.000000
vn 1.000000 -0.000000 0.000000
vn 1.000000 -0.000000 0.000000
vn 1.000000 -0.000000 0.000000
vn 1.000000 -0.000000 0.000000
vn 0.000000 0.000000 1.000000
vn 0.000000 0.000000 1.000000
vn 0.000000 0.000000 1.000000
vn 0.000000 0.000000 1.000000
vn 0.000000 0.000000 1.000000
vn 0.000000 0.000000 1.000000
vn 0.000000 0.000000 1.000000
vn 0.000000 0.000000 1.000000
s off
g house_windows
usemtl lambert5SG
f 4/1/1 3/2/2 1/3/3 2/4/4
usemtl lambert1SG
f 8/5/5 7/6/6 5/7/7 6/8/8
f 12/9/9 11/10/10 9/11/11 10/12/12
usemtl lambert5SG
f 16/13/13 15/14/14 13/15/15 14/16/16
f 20/17/17 19/18/18 17/19/19 18/20/20
f 24/21/21 23/22/22 21/23/23 22/24/24
f 28/25/25 27/26/26 25/27/27 26/28/28
f 32/29/29 31/30/30 29/31/31 30/32/32
f 36/33/33 35/34/34 33/35/35 34/36/36
f 40/37/37 39/38/38 37/39/39 38/40/40
f 44/41/41 43/42/42 41/43/43 42/44/44
f 48/45/45 47/46/46 45/47/47 46/48/48
